<svg viewBox="0 0 250 209.71065969280005" preserveAspectRatio="xMidYMid meet" class="css-4ymrzp" id="baadagea"><defs id="SvgjsDefs1001"></defs><g id="SvgjsG1007" featurekey="mugSzh-0" transform="matrix(1.0231643624808302,0,0,1.0231643624808302,73.9267008023291,-5.878079145360501)" fill="#ffffff"><g xmlns="http://www.w3.org/2000/svg"><g><g><path d="M18.166,5.745l29.79,20.385v69.58c-10.468-15.047-29.79-21.16-29.79-21.16V5.745z"></path><path d="M21.335,91.309c0,0-8.674-4.383-20.286-2.572V20.375h2.84v64.935C3.889,85.311,16.393,85.156,21.335,91.309z"></path><path d="M33.061,89.082L33.061,89.082c-4.537-6.451-18.816-11.469-18.816-11.469V13.452l-5.932-2.32v69.835     c0,0,6.098,0.752,9.144,1.611C27.976,85.551,33.061,89.082,33.061,89.082z"></path></g></g><g><g><path d="M81.668,5.745l-29.79,20.385v69.58c10.468-15.047,29.79-21.16,29.79-21.16V5.745z"></path><path d="M78.499,91.309c0,0,8.675-4.383,20.286-2.572V20.375h-2.84v64.935C95.945,85.311,83.441,85.156,78.499,91.309z"></path><path d="M66.773,89.082L66.773,89.082c4.537-6.451,18.816-11.469,18.816-11.469V13.452l5.932-2.32v69.835     c0,0-6.098,0.752-9.144,1.611C71.857,85.551,66.773,89.082,66.773,89.082z"></path></g></g></g></g><g id="SvgjsG1008" featurekey="PPkF4s-0" transform="matrix(4.469074117578465,0,0,4.469074117578465,-6.882376101609791,91.35287808823244)" fill="#ffffff"><path d="M11.87 11.22 q-0.51 0.8 -1.33 1.14 q1 0.34 1.72 1.3 t0.72 2.1 q0 2.26 -1.44 3.25 t-3.68 0.99 l-6.32 0 l0 -14.62 l6.08 0 q4.76 0 4.76 4.06 q0 0.98 -0.51 1.78 z M7.68 11.18 q0.78 0 1.15 -0.48 t0.37 -1.14 q0 -0.58 -0.44 -1.01 t-1.06 -0.43 l-2.98 0 l0 3.06 l2.96 0 z M9.3 16.78 q0.52 -0.48 0.52 -1.18 t-0.52 -1.18 t-1.5 -0.48 l-3.08 0 l0 3.32 l3.14 0 q0.92 0 1.44 -0.48 z M18.240000000000002 7.369999999999999 q-0.48 0.47 -1.16 0.47 q-0.7 0 -1.19 -0.47 t-0.49 -1.15 q0 -0.66 0.49 -1.13 t1.19 -0.47 q0.68 0 1.16 0.47 t0.48 1.13 q0 0.68 -0.48 1.15 z M15.58 9.02 l3 0 l0 10.98 l-3 0 l0 -10.98 z M20.92 18.54 l1.56 -2.08 q0.72 0.5 1.68 0.84 t1.88 0.34 q0.68 0 1.13 -0.28 t0.45 -0.7 t-0.51 -0.59 t-0.99 -0.24 t-0.62 -0.09 q-1.2 -0.2 -2.07 -0.48 t-1.58 -1 t-0.71 -1.98 q0 -2.08 1.51 -2.78 t3.03 -0.7 q1.3 0 2.4 0.38 t2.18 1.2 l-1.56 2.04 q-0.78 -0.46 -1.54 -0.74 t-1.58 -0.28 q-0.5 0 -0.97 0.22 t-0.47 0.6 q0 0.48 0.65 0.68 t1.43 0.3 q1.4 0.24 2.24 0.5 t1.49 0.97 t0.65 2.01 q0 1.72 -1.18 2.65 t-3.34 0.93 q-3 0 -5.16 -1.72 z M41.32 18.9 q-0.38 0.52 -1.31 0.93 t-2.03 0.41 q-1.7 0 -2.95 -0.76 t-1.91 -2.07 t-0.66 -2.91 t0.66 -2.91 t1.91 -2.07 t2.95 -0.76 q1.14 0 2.01 0.39 t1.33 0.99 l0 -1.14 l2.96 0 l0 11 l-2.96 0 l0 -1.1 z M40.620000000000005 12.25 q-0.82 -0.87 -2.2 -0.87 q-1.4 0 -2.21 0.87 t-0.81 2.25 q0 1.34 0.83 2.22 t2.19 0.88 q1.4 0 2.21 -0.83 t0.81 -2.27 q0 -1.38 -0.82 -2.25 z M56.45 10.02 q1.03 1.22 1.03 3.48 l0 6.5 l-3.06 0 l0 -6.5 q0 -2.22 -2.12 -2.22 q-0.82 0 -1.48 0.65 t-0.62 2.25 l0 5.82 l-2.98 0 l0 -11 l2.98 0 l0 0.98 q0.54 -0.54 1.36 -0.86 t1.58 -0.32 q2.28 0 3.31 1.22 z"></path></g><g id="SvgjsG1009" featurekey="uwAHB0-0" transform="matrix(1.185452413634548,0,0,1.185452413634548,23.861965637689412,185.45630439515128)" fill="#ffffff"><path d="M1.24 20 l0 -0.04 c-0.16 -0.68 -0.28 -1.44 -0.28 -2.2 c0 -1.54 0.46 -3.08 1.92 -4.1 c2.72 -1.92 5.62 -3.42 5.62 -5 c0 -1.12 -1.44 -1.98 -2.56 -1.98 c-0.98 0 -1.98 0.46 -2.64 1.22 l-0.7 0.8 l-1.1 0 l0.02 -1.84 c1.42 -0.6 2.76 -0.86 4.14 -0.86 c1.1 0 4.82 0.52 4.94 3.54 c0 1.72 -1.46 2.88 -3.7 4.3 c-1.94 1.24 -4.84 2.48 -4.84 4.38 c0 0.26 0.06 0.54 0.18 0.82 l4.66 0 c0.78 0 1.44 -0.24 2.08 -0.68 l0.38 -0.26 l0.64 0 l0 1.9 l-8.76 0 z M23.736 20 l6.08 -13.04 l-3.88 0 c-1.06 0 -2.1 0.28 -2.9 0.92 l-0.66 0 l0 -1.88 l9.6 0 l0 1 l-6.1 13 l-2.14 0 z M50.332 20.46 c-3.48 0 -6.28 -3.32 -6.28 -7.44 s2.8 -7.5 6.28 -7.5 c3.44 0 6.26 3.38 6.26 7.5 s-2.82 7.44 -6.26 7.44 z M51.952 19.6 c2.24 -0.64 3.02 -4.18 2.16 -7.64 c-0.86 -3.44 -3.18 -6.1 -5.42 -5.46 c-2.22 0.62 -2.78 4.12 -1.92 7.58 c0.86 3.4 2.96 6.18 5.18 5.52 z M68.88799999999999 20 l0 -0.04 c-0.16 -0.68 -0.28 -1.44 -0.28 -2.2 c0 -1.54 0.46 -3.08 1.92 -4.1 c2.72 -1.92 5.62 -3.42 5.62 -5 c0 -1.12 -1.44 -1.98 -2.56 -1.98 c-0.98 0 -1.98 0.46 -2.64 1.22 l-0.7 0.8 l-1.1 0 l0.02 -1.84 c1.42 -0.6 2.76 -0.86 4.14 -0.86 c1.1 0 4.82 0.52 4.94 3.54 c0 1.72 -1.46 2.88 -3.7 4.3 c-1.94 1.24 -4.84 2.48 -4.84 4.38 c0 0.26 0.06 0.54 0.18 0.82 l4.66 0 c0.78 0 1.44 -0.24 2.08 -0.68 l0.38 -0.26 l0.64 0 l0 1.9 l-8.76 0 z M91.38399999999999 20 l6.08 -13.04 l-3.88 0 c-1.06 0 -2.1 0.28 -2.9 0.92 l-0.66 0 l0 -1.88 l9.6 0 l0 1 l-6.1 13 l-2.14 0 z M128.53599999999997 20 l0 -0.54 l0.76 -0.84 c0.18 -0.2 0.3 -0.42 0.3 -0.68 l0 -9.86 c0 -0.28 -0.12 -0.52 -0.3 -0.7 l-0.76 -0.82 l0 -0.56 l4.26 0 l0 0.56 l-0.76 0.82 c-0.18 0.18 -0.28 0.42 -0.28 0.7 l0 4.36 l6.4 -5.04 c0.32 -0.24 0.42 -0.64 0.34 -1.04 l0 -0.36 l3.04 0 l0 0.34 l-0.7 0.28 c-0.56 0.24 -1.14 0.54 -1.64 0.94 l-5.56 4.44 l1.76 0 l4.64 5.84 c0.3 0.38 0.62 0.7 1.04 1 l0.84 0.62 l0 0.54 l-4.24 0 l0 -0.54 c0.5 -0.34 0.64 -1.04 0.26 -1.5 l-4.56 -5.74 l-1.62 1.28 l0 4.44 c0 0.26 0.1 0.48 0.28 0.7 l0.76 0.82 l0 0.54 l-4.26 0 z M153.45199999999997 20 l0 -0.54 l0.34 -0.34 c0.36 -0.36 0.56 -0.82 0.56 -1.36 l0 -9.32 c0 -0.48 -0.22 -0.92 -0.52 -1.28 l-0.5 -0.58 l0 -0.58 l3.18 0 l4.98 11.58 l4.9 -11.58 l3.28 0 l0 0.58 l-0.54 0.58 c-0.32 0.34 -0.52 0.8 -0.52 1.3 l0 9.16 c0 0.46 0.14 0.92 0.5 1.28 l0.52 0.56 l0 0.54 l-4.24 0 l0 -0.54 l0.52 -0.56 c0.32 -0.36 0.48 -0.82 0.48 -1.28 l0 -9.8 l-4.56 10.66 l-2.16 0 l-4.48 -10.42 l0 10 c0 0.52 0.24 1.02 0.62 1.4 l0 0.54 l-2.36 0 z"></path></g></svg>